<?xml version="1.0" encoding="UTF-8"?>
<!DOCTYPE svg PUBLIC "-//W3C//DTD SVG 1.1//EN" "http://www.w3.org/Graphics/SVG/1.1/DTD/svg11.dtd">
<svg version="1.2" width="203.46mm" height="203.46mm" viewBox="0 0 20346 20346" preserveAspectRatio="xMidYMid" fill-rule="evenodd" stroke-width="28.222" stroke-linejoin="round" xmlns="http://www.w3.org/2000/svg" xmlns:ooo="http://xml.openoffice.org/svg/export" xmlns:xlink="http://www.w3.org/1999/xlink" xmlns:presentation="http://sun.com/xmlns/staroffice/presentation" xmlns:smil="http://www.w3.org/2001/SMIL20/" xmlns:anim="urn:oasis:names:tc:opendocument:xmlns:animation:1.0" xmlns:svg="urn:oasis:names:tc:opendocument:xmlns:svg-compatible:1.0" xml:space="preserve">
 <defs class="ClipPathGroup">
  <clipPath id="presentation_clip_path" clipPathUnits="userSpaceOnUse">
   <rect x="0" y="0" width="20346" height="20346"/>
  </clipPath>
  <clipPath id="presentation_clip_path_shrink" clipPathUnits="userSpaceOnUse">
   <rect x="20" y="20" width="20306" height="20306"/>
  </clipPath>
 </defs>
 <defs class="TextShapeIndex">
  <g ooo:slide="id1" ooo:id-list="id3"/>
 </defs>
 <defs class="EmbeddedBulletChars">
  <g id="bullet-char-template-57356" transform="scale(0.00048828125,-0.00048828125)">
   <path d="M 580,1141 L 1163,571 580,0 -4,571 580,1141 Z"/>
  </g>
  <g id="bullet-char-template-57354" transform="scale(0.00048828125,-0.00048828125)">
   <path d="M 8,1128 L 1137,1128 1137,0 8,0 8,1128 Z"/>
  </g>
  <g id="bullet-char-template-10146" transform="scale(0.00048828125,-0.00048828125)">
   <path d="M 174,0 L 602,739 174,1481 1456,739 174,0 Z M 1358,739 L 309,1346 659,739 1358,739 Z"/>
  </g>
  <g id="bullet-char-template-10132" transform="scale(0.00048828125,-0.00048828125)">
   <path d="M 2015,739 L 1276,0 717,0 1260,543 174,543 174,936 1260,936 717,1481 1274,1481 2015,739 Z"/>
  </g>
  <g id="bullet-char-template-10007" transform="scale(0.00048828125,-0.00048828125)">
   <path d="M 0,-2 C -7,14 -16,27 -25,37 L 356,567 C 262,823 215,952 215,954 215,979 228,992 255,992 264,992 276,990 289,987 310,991 331,999 354,1012 L 381,999 492,748 772,1049 836,1024 860,1049 C 881,1039 901,1025 922,1006 886,937 835,863 770,784 769,783 710,716 594,584 L 774,223 C 774,196 753,168 711,139 L 727,119 C 717,90 699,76 672,76 641,76 570,178 457,381 L 164,-76 C 142,-110 111,-127 72,-127 30,-127 9,-110 8,-76 1,-67 -2,-52 -2,-32 -2,-23 -1,-13 0,-2 Z"/>
  </g>
  <g id="bullet-char-template-10004" transform="scale(0.00048828125,-0.00048828125)">
   <path d="M 285,-33 C 182,-33 111,30 74,156 52,228 41,333 41,471 41,549 55,616 82,672 116,743 169,778 240,778 293,778 328,747 346,684 L 369,508 C 377,444 397,411 428,410 L 1163,1116 C 1174,1127 1196,1133 1229,1133 1271,1133 1292,1118 1292,1087 L 1292,965 C 1292,929 1282,901 1262,881 L 442,47 C 390,-6 338,-33 285,-33 Z"/>
  </g>
  <g id="bullet-char-template-9679" transform="scale(0.00048828125,-0.00048828125)">
   <path d="M 813,0 C 632,0 489,54 383,161 276,268 223,411 223,592 223,773 276,916 383,1023 489,1130 632,1184 813,1184 992,1184 1136,1130 1245,1023 1353,916 1407,772 1407,592 1407,412 1353,268 1245,161 1136,54 992,0 813,0 Z"/>
  </g>
  <g id="bullet-char-template-8226" transform="scale(0.00048828125,-0.00048828125)">
   <path d="M 346,457 C 273,457 209,483 155,535 101,586 74,649 74,723 74,796 101,859 155,911 209,963 273,989 346,989 419,989 480,963 531,910 582,859 608,796 608,723 608,648 583,586 532,535 482,483 420,457 346,457 Z"/>
  </g>
  <g id="bullet-char-template-8211" transform="scale(0.00048828125,-0.00048828125)">
   <path d="M -4,459 L 1135,459 1135,606 -4,606 -4,459 Z"/>
  </g>
  <g id="bullet-char-template-61548" transform="scale(0.00048828125,-0.00048828125)">
   <path d="M 173,740 C 173,903 231,1043 346,1159 462,1274 601,1332 765,1332 928,1332 1067,1274 1183,1159 1299,1043 1357,903 1357,740 1357,577 1299,437 1183,322 1067,206 928,148 765,148 601,148 462,206 346,322 231,437 173,577 173,740 Z"/>
  </g>
 </defs>
 <g>
  <g id="id2" class="Master_Slide">
   <g id="bg-id2" class="Background"/>
   <g id="bo-id2" class="BackgroundObjects"/>
  </g>
 </g>
 <g class="SlideGroup">
  <g>
   <g id="container-id1">
    <g id="id1" class="Slide" clip-path="url(#presentation_clip_path)">
     <g class="Page">
      <g class="Graphic">
       <g id="id3">
        <rect class="BoundingBox" stroke="none" fill="none" x="847" y="827" width="18673" height="18673"/>
        <path fill="rgb(128,128,128)" stroke="none" d="M 9865,19312 L 9089,19312 9089,18007 10640,18007 10640,19312 9865,19312 9865,19312 Z"/>
        <path fill="none" stroke="rgb(0,0,0)" stroke-width="26" stroke-linejoin="round" d="M 9865,19312 L 9089,19312 9089,18007 10640,18007 10640,19312 9865,19312 9865,19312 Z"/>
        <path fill="rgb(178,178,178)" stroke="none" d="M 9493,19312 L 9295,19312 9295,18007 9691,18007 9691,19312 9493,19312 9493,19312 Z"/>
        <path fill="none" stroke="rgb(0,0,0)" stroke-width="26" stroke-linejoin="round" d="M 9493,19312 L 9295,19312 9295,18007 9691,18007 9691,19312 9493,19312 9493,19312 Z"/>
        <path fill="rgb(255,255,255)" stroke="none" d="M 6887,1048 C 9106,1048 11423,1325 13643,1325 15211,2893 16555,4709 18124,6277 18124,8853 18080,10618 18080,13194 16511,14763 15111,16615 13543,18184 11324,18184 9209,18057 6989,18057 5421,16489 3873,14696 2305,13128 2305,10553 2284,8362 2284,5786 3853,4218 5318,2617 6887,1048 L 6887,1048 Z"/>
        <path fill="none" stroke="rgb(0,0,0)" stroke-width="26" stroke-linejoin="round" d="M 6887,1048 C 9106,1048 11423,1325 13643,1325 15211,2893 16555,4709 18124,6277 18124,8853 18080,10618 18080,13194 16511,14763 15111,16615 13543,18184 11324,18184 9209,18057 6989,18057 5421,16489 3873,14696 2305,13128 2305,10553 2284,8362 2284,5786 3853,4218 5318,2617 6887,1048 Z"/>
        <path fill="rgb(255,0,0)" stroke="none" d="M 7261,1738 C 9480,1738 11126,1961 13345,1961 14914,3529 15914,5038 17482,6607 17482,9182 17442,10479 17442,13054 15874,14622 14934,15947 13366,17516 11147,17516 9824,17415 7605,17415 6037,15846 4632,14157 3063,12588 3063,10013 3082,8510 3082,5935 4650,4367 5693,3306 7261,1738 L 7261,1738 Z"/>
        <path fill="none" stroke="rgb(0,0,0)" stroke-width="26" stroke-linejoin="round" d="M 7261,1738 C 9480,1738 11126,1961 13345,1961 14914,3529 15914,5038 17482,6607 17482,9182 17442,10479 17442,13054 15874,14622 14934,15947 13366,17516 11147,17516 9824,17415 7605,17415 6037,15846 4632,14157 3063,12588 3063,10013 3082,8510 3082,5935 4650,4367 5693,3306 7261,1738 Z"/>
        <path fill="rgb(255,255,255)" stroke="none" d="M 8399,7097 L 8433,5848 11259,5923 10536,5208 11263,4473 12465,5662 12183,5948 14914,6021 14881,7269 8399,7097 8399,7097 Z"/>
        <path fill="none" stroke="rgb(0,0,0)" stroke-width="26" stroke-linejoin="round" d="M 8399,7097 L 8433,5848 11259,5923 10536,5208 11263,4473 12465,5662 12183,5948 14914,6021 14881,7269 8399,7097 8399,7097 Z"/>
        <path fill="rgb(255,255,255)" stroke="none" d="M 11496,9533 L 9006,9466 9063,7289 14045,7421 13987,9599 11496,9533 11496,9533 Z"/>
        <path fill="none" stroke="rgb(0,0,0)" stroke-width="26" stroke-linejoin="round" d="M 11496,9533 L 9006,9466 9063,7289 14045,7421 13987,9599 11496,9533 11496,9533 Z"/>
        <path fill="rgb(255,255,255)" stroke="none" d="M 8177,9644 L 14152,9803 14152,9802 15310,9833 15310,9834 15312,9834 15282,10980 15280,10980 15245,12285 14086,12253 14121,10949 9302,10820 9266,12142 8108,12109 8173,9659 8176,9659 8177,9644 8177,9644 Z"/>
        <path fill="none" stroke="rgb(0,0,0)" stroke-width="26" stroke-linejoin="round" d="M 8177,9644 L 14152,9803 14152,9802 15310,9833 15310,9834 15312,9834 15282,10980 15280,10980 15245,12285 14086,12253 14121,10949 9302,10820 9266,12142 8108,12109 8173,9659 8176,9659 8177,9644 8177,9644 Z"/>
        <path fill="rgb(255,255,255)" stroke="none" d="M 9586,12369 L 9617,11224 13882,11339 13852,12482 12441,12444 C 12545,14912 12426,14885 10659,15113 10413,14421 10460,14320 10315,13837 10838,13697 11447,14258 11270,12413 L 9586,12369 9586,12369 Z"/>
        <path fill="none" stroke="rgb(0,0,0)" stroke-width="26" stroke-linejoin="round" d="M 9586,12369 L 9617,11224 13882,11339 13852,12482 12441,12444 C 12545,14912 12426,14885 10659,15113 10413,14421 10460,14320 10315,13837 10838,13697 11447,14258 11270,12413 L 9586,12369 Z"/>
        <path fill="rgb(255,0,0)" stroke="none" d="M 11560,8681 L 10289,8647 10300,8249 12842,8317 12831,8715 11560,8681 11560,8681 Z"/>
        <path fill="none" stroke="rgb(0,0,0)" stroke-width="26" stroke-linejoin="round" d="M 11560,8681 L 10289,8647 10300,8249 12842,8317 12831,8715 11560,8681 11560,8681 Z"/>
        <path fill="rgb(255,255,255)" stroke="none" d="M 6913,14993 L 6999,8698 C 6640,9388 6273,9974 5929,10320 5683,9629 5590,9092 5529,8607 6806,7045 7070,5564 7657,4165 8347,4488 8249,4534 8711,4649 8439,5401 8071,6363 7664,7294 L 8024,7294 7919,14993 6913,14993 6913,14993 Z"/>
        <path fill="none" stroke="rgb(0,0,0)" stroke-width="26" stroke-linejoin="round" d="M 6913,14993 L 6999,8698 C 6640,9388 6273,9974 5929,10320 5683,9629 5590,9092 5529,8607 6806,7045 7070,5564 7657,4165 8347,4488 8249,4534 8711,4649 8439,5401 8071,6363 7664,7294 L 8024,7294 7919,14993 6913,14993 Z"/>
       </g>
      </g>
     </g>
    </g>
   </g>
  </g>
 </g>
</svg>