<?xml version="1.0" encoding="UTF-8"?>
<!DOCTYPE svg PUBLIC "-//W3C//DTD SVG 1.1//EN" "http://www.w3.org/Graphics/SVG/1.1/DTD/svg11.dtd">
<svg version="1.2" width="203.46mm" height="203.46mm" viewBox="0 0 20346 20346" preserveAspectRatio="xMidYMid" fill-rule="evenodd" stroke-width="28.222" stroke-linejoin="round" xmlns="http://www.w3.org/2000/svg" xmlns:ooo="http://xml.openoffice.org/svg/export" xmlns:xlink="http://www.w3.org/1999/xlink" xmlns:presentation="http://sun.com/xmlns/staroffice/presentation" xmlns:smil="http://www.w3.org/2001/SMIL20/" xmlns:anim="urn:oasis:names:tc:opendocument:xmlns:animation:1.0" xmlns:svg="urn:oasis:names:tc:opendocument:xmlns:svg-compatible:1.0" xml:space="preserve">
 <defs class="ClipPathGroup">
  <clipPath id="presentation_clip_path" clipPathUnits="userSpaceOnUse">
   <rect x="0" y="0" width="20346" height="20346"/>
  </clipPath>
  <clipPath id="presentation_clip_path_shrink" clipPathUnits="userSpaceOnUse">
   <rect x="20" y="20" width="20306" height="20306"/>
  </clipPath>
 </defs>
 <defs class="TextShapeIndex">
  <g ooo:slide="id1" ooo:id-list="id3"/>
 </defs>
 <defs class="EmbeddedBulletChars">
  <g id="bullet-char-template-57356" transform="scale(0.00048828125,-0.00048828125)">
   <path d="M 580,1141 L 1163,571 580,0 -4,571 580,1141 Z"/>
  </g>
  <g id="bullet-char-template-57354" transform="scale(0.00048828125,-0.00048828125)">
   <path d="M 8,1128 L 1137,1128 1137,0 8,0 8,1128 Z"/>
  </g>
  <g id="bullet-char-template-10146" transform="scale(0.00048828125,-0.00048828125)">
   <path d="M 174,0 L 602,739 174,1481 1456,739 174,0 Z M 1358,739 L 309,1346 659,739 1358,739 Z"/>
  </g>
  <g id="bullet-char-template-10132" transform="scale(0.00048828125,-0.00048828125)">
   <path d="M 2015,739 L 1276,0 717,0 1260,543 174,543 174,936 1260,936 717,1481 1274,1481 2015,739 Z"/>
  </g>
  <g id="bullet-char-template-10007" transform="scale(0.00048828125,-0.00048828125)">
   <path d="M 0,-2 C -7,14 -16,27 -25,37 L 356,567 C 262,823 215,952 215,954 215,979 228,992 255,992 264,992 276,990 289,987 310,991 331,999 354,1012 L 381,999 492,748 772,1049 836,1024 860,1049 C 881,1039 901,1025 922,1006 886,937 835,863 770,784 769,783 710,716 594,584 L 774,223 C 774,196 753,168 711,139 L 727,119 C 717,90 699,76 672,76 641,76 570,178 457,381 L 164,-76 C 142,-110 111,-127 72,-127 30,-127 9,-110 8,-76 1,-67 -2,-52 -2,-32 -2,-23 -1,-13 0,-2 Z"/>
  </g>
  <g id="bullet-char-template-10004" transform="scale(0.00048828125,-0.00048828125)">
   <path d="M 285,-33 C 182,-33 111,30 74,156 52,228 41,333 41,471 41,549 55,616 82,672 116,743 169,778 240,778 293,778 328,747 346,684 L 369,508 C 377,444 397,411 428,410 L 1163,1116 C 1174,1127 1196,1133 1229,1133 1271,1133 1292,1118 1292,1087 L 1292,965 C 1292,929 1282,901 1262,881 L 442,47 C 390,-6 338,-33 285,-33 Z"/>
  </g>
  <g id="bullet-char-template-9679" transform="scale(0.00048828125,-0.00048828125)">
   <path d="M 813,0 C 632,0 489,54 383,161 276,268 223,411 223,592 223,773 276,916 383,1023 489,1130 632,1184 813,1184 992,1184 1136,1130 1245,1023 1353,916 1407,772 1407,592 1407,412 1353,268 1245,161 1136,54 992,0 813,0 Z"/>
  </g>
  <g id="bullet-char-template-8226" transform="scale(0.00048828125,-0.00048828125)">
   <path d="M 346,457 C 273,457 209,483 155,535 101,586 74,649 74,723 74,796 101,859 155,911 209,963 273,989 346,989 419,989 480,963 531,910 582,859 608,796 608,723 608,648 583,586 532,535 482,483 420,457 346,457 Z"/>
  </g>
  <g id="bullet-char-template-8211" transform="scale(0.00048828125,-0.00048828125)">
   <path d="M -4,459 L 1135,459 1135,606 -4,606 -4,459 Z"/>
  </g>
  <g id="bullet-char-template-61548" transform="scale(0.00048828125,-0.00048828125)">
   <path d="M 173,740 C 173,903 231,1043 346,1159 462,1274 601,1332 765,1332 928,1332 1067,1274 1183,1159 1299,1043 1357,903 1357,740 1357,577 1299,437 1183,322 1067,206 928,148 765,148 601,148 462,206 346,322 231,437 173,577 173,740 Z"/>
  </g>
 </defs>
 <g>
  <g id="id2" class="Master_Slide">
   <g id="bg-id2" class="Background"/>
   <g id="bo-id2" class="BackgroundObjects"/>
  </g>
 </g>
 <g class="SlideGroup">
  <g>
   <g id="container-id1">
    <g id="id1" class="Slide" clip-path="url(#presentation_clip_path)">
     <g class="Page">
      <g class="Graphic">
       <g id="id3">
        <rect class="BoundingBox" stroke="none" fill="none" x="827" y="827" width="18693" height="18693"/>
        <path fill="rgb(0,0,0)" stroke="none" d="M 9854,19332 L 9078,19332 9078,18025 10631,18025 10631,19332 9854,19332 9854,19332 Z"/>
        <path fill="rgb(255,255,255)" stroke="none" d="M 9482,19332 L 9284,19332 9284,18025 9681,18025 9681,19332 9482,19332 9482,19332 Z"/>
        <path fill="rgb(255,255,255)" stroke="none" d="M 6873,1049 C 9094,1049 11414,1325 13636,1325 15206,2895 16551,4713 18122,6283 18122,8861 18078,10629 18078,13207 16508,14777 15106,16632 13536,18202 11315,18202 9198,18076 6976,18076 5406,16506 3856,14711 2286,13141 2286,10563 2266,8371 2266,5792 3836,4222 5303,2619 6873,1049 L 6873,1049 Z"/>
        <path fill="rgb(0,0,0)" stroke="none" d="M 7248,1739 C 9469,1739 11117,1962 13339,1962 14909,3532 15910,5042 17480,6613 17480,9191 17440,10489 17440,13067 15870,14637 14929,15963 13359,17534 11138,17534 9814,17432 7592,17432 6022,15862 4616,14171 3046,12601 3046,10023 3064,8518 3064,5941 4634,4371 5678,3309 7248,1739 L 7248,1739 Z"/>
        <path fill="rgb(255,255,255)" stroke="none" d="M 8387,7104 L 8421,5853 11251,5929 10527,5213 11254,4477 12458,5667 12175,5953 14909,6027 14876,7276 8387,7104 8387,7104 Z"/>
        <path fill="rgb(255,255,255)" stroke="none" d="M 11488,9542 L 8994,9476 9052,7296 14039,7428 13981,9608 11488,9542 11488,9542 Z"/>
        <path fill="rgb(255,255,255)" stroke="none" d="M 8165,9653 L 14146,9813 14146,9812 15306,9842 15306,9844 15308,9844 15277,10991 15275,10991 15240,12297 14080,12265 14115,10959 9291,10831 9255,12154 8096,12122 8161,9669 8164,9669 8165,9653 8165,9653 Z"/>
        <path fill="rgb(255,255,255)" stroke="none" d="M 9576,12382 L 9606,11235 13876,11350 13846,12495 12434,12457 C 12538,14927 12418,14900 10650,15128 10404,14436 10450,14335 10305,13850 10829,13711 11438,14272 11261,12426 L 9576,12382 9576,12382 Z"/>
        <path fill="rgb(0,0,0)" stroke="none" d="M 11551,8689 L 10279,8655 10290,8257 12834,8325 12823,8723 11551,8689 11551,8689 Z"/>
        <path fill="rgb(255,255,255)" stroke="none" d="M 6900,15008 L 6986,8707 C 6626,9398 6258,9984 5914,10330 5668,9638 5575,9101 5514,8615 6792,7051 7057,5569 7645,4168 8335,4492 8237,4538 8699,4653 8427,5406 8059,6369 7651,7301 L 8011,7301 7907,15008 6900,15008 6900,15008 Z"/>
       </g>
      </g>
     </g>
    </g>
   </g>
  </g>
 </g>
</svg>