<?xml version="1.0" encoding="UTF-8"?>
<!DOCTYPE svg PUBLIC "-//W3C//DTD SVG 1.1//EN" "http://www.w3.org/Graphics/SVG/1.1/DTD/svg11.dtd">
<svg version="1.2" width="203.2mm" height="203.2mm" viewBox="0 0 20320 20320" preserveAspectRatio="xMidYMid" fill-rule="evenodd" stroke-width="28.222" stroke-linejoin="round" xmlns="http://www.w3.org/2000/svg" xmlns:ooo="http://xml.openoffice.org/svg/export" xmlns:xlink="http://www.w3.org/1999/xlink" xmlns:presentation="http://sun.com/xmlns/staroffice/presentation" xmlns:smil="http://www.w3.org/2001/SMIL20/" xmlns:anim="urn:oasis:names:tc:opendocument:xmlns:animation:1.0" xmlns:svg="urn:oasis:names:tc:opendocument:xmlns:svg-compatible:1.0" xml:space="preserve">
 <defs class="ClipPathGroup">
  <clipPath id="presentation_clip_path" clipPathUnits="userSpaceOnUse">
   <rect x="0" y="0" width="20320" height="20320"/>
  </clipPath>
  <clipPath id="presentation_clip_path_shrink" clipPathUnits="userSpaceOnUse">
   <rect x="20" y="20" width="20280" height="20280"/>
  </clipPath>
 </defs>
 <defs class="TextShapeIndex">
  <g ooo:slide="id1" ooo:id-list="id3 id4 id5 id6 id7 id8 id9 id10 id11 id12"/>
 </defs>
 <defs class="EmbeddedBulletChars">
  <g id="bullet-char-template-57356" transform="scale(0.00048828125,-0.00048828125)">
   <path d="M 580,1141 L 1163,571 580,0 -4,571 580,1141 Z"/>
  </g>
  <g id="bullet-char-template-57354" transform="scale(0.00048828125,-0.00048828125)">
   <path d="M 8,1128 L 1137,1128 1137,0 8,0 8,1128 Z"/>
  </g>
  <g id="bullet-char-template-10146" transform="scale(0.00048828125,-0.00048828125)">
   <path d="M 174,0 L 602,739 174,1481 1456,739 174,0 Z M 1358,739 L 309,1346 659,739 1358,739 Z"/>
  </g>
  <g id="bullet-char-template-10132" transform="scale(0.00048828125,-0.00048828125)">
   <path d="M 2015,739 L 1276,0 717,0 1260,543 174,543 174,936 1260,936 717,1481 1274,1481 2015,739 Z"/>
  </g>
  <g id="bullet-char-template-10007" transform="scale(0.00048828125,-0.00048828125)">
   <path d="M 0,-2 C -7,14 -16,27 -25,37 L 356,567 C 262,823 215,952 215,954 215,979 228,992 255,992 264,992 276,990 289,987 310,991 331,999 354,1012 L 381,999 492,748 772,1049 836,1024 860,1049 C 881,1039 901,1025 922,1006 886,937 835,863 770,784 769,783 710,716 594,584 L 774,223 C 774,196 753,168 711,139 L 727,119 C 717,90 699,76 672,76 641,76 570,178 457,381 L 164,-76 C 142,-110 111,-127 72,-127 30,-127 9,-110 8,-76 1,-67 -2,-52 -2,-32 -2,-23 -1,-13 0,-2 Z"/>
  </g>
  <g id="bullet-char-template-10004" transform="scale(0.00048828125,-0.00048828125)">
   <path d="M 285,-33 C 182,-33 111,30 74,156 52,228 41,333 41,471 41,549 55,616 82,672 116,743 169,778 240,778 293,778 328,747 346,684 L 369,508 C 377,444 397,411 428,410 L 1163,1116 C 1174,1127 1196,1133 1229,1133 1271,1133 1292,1118 1292,1087 L 1292,965 C 1292,929 1282,901 1262,881 L 442,47 C 390,-6 338,-33 285,-33 Z"/>
  </g>
  <g id="bullet-char-template-9679" transform="scale(0.00048828125,-0.00048828125)">
   <path d="M 813,0 C 632,0 489,54 383,161 276,268 223,411 223,592 223,773 276,916 383,1023 489,1130 632,1184 813,1184 992,1184 1136,1130 1245,1023 1353,916 1407,772 1407,592 1407,412 1353,268 1245,161 1136,54 992,0 813,0 Z"/>
  </g>
  <g id="bullet-char-template-8226" transform="scale(0.00048828125,-0.00048828125)">
   <path d="M 346,457 C 273,457 209,483 155,535 101,586 74,649 74,723 74,796 101,859 155,911 209,963 273,989 346,989 419,989 480,963 531,910 582,859 608,796 608,723 608,648 583,586 532,535 482,483 420,457 346,457 Z"/>
  </g>
  <g id="bullet-char-template-8211" transform="scale(0.00048828125,-0.00048828125)">
   <path d="M -4,459 L 1135,459 1135,606 -4,606 -4,459 Z"/>
  </g>
  <g id="bullet-char-template-61548" transform="scale(0.00048828125,-0.00048828125)">
   <path d="M 173,740 C 173,903 231,1043 346,1159 462,1274 601,1332 765,1332 928,1332 1067,1274 1183,1159 1299,1043 1357,903 1357,740 1357,577 1299,437 1183,322 1067,206 928,148 765,148 601,148 462,206 346,322 231,437 173,577 173,740 Z"/>
  </g>
 </defs>
 <g>
  <g id="id2" class="Master_Slide">
   <g id="bg-id2" class="Background"/>
   <g id="bo-id2" class="BackgroundObjects"/>
  </g>
 </g>
 <g class="SlideGroup">
  <g>
   <g id="container-id1">
    <g id="id1" class="Slide" clip-path="url(#presentation_clip_path)">
     <g class="Page">
      <g class="Group">
       <g class="com.sun.star.drawing.CustomShape">
        <g id="id3">
         <rect class="BoundingBox" stroke="none" fill="none" x="8967" y="18706" width="1693" height="1426"/>
         <path fill="rgb(128,128,128)" stroke="none" d="M 9813,20130 L 8968,20130 8968,18707 10658,18707 10658,20130 9813,20130 Z"/>
         <path fill="none" stroke="rgb(0,0,0)" d="M 9813,20130 L 8968,20130 8968,18707 10658,18707 10658,20130 9813,20130 Z"/>
        </g>
       </g>
       <g class="com.sun.star.drawing.CustomShape">
        <g id="id4">
         <rect class="BoundingBox" stroke="none" fill="none" x="9191" y="18706" width="435" height="1426"/>
         <path fill="rgb(178,178,178)" stroke="none" d="M 9408,20130 L 9192,20130 9192,18707 9624,18707 9624,20130 9408,20130 Z"/>
         <path fill="none" stroke="rgb(0,0,0)" d="M 9408,20130 L 9192,20130 9192,18707 9624,18707 9624,20130 9408,20130 Z"/>
        </g>
       </g>
       <g class="com.sun.star.drawing.ClosedBezierShape">
        <g id="id5">
         <rect class="BoundingBox" stroke="none" fill="none" x="1552" y="227" width="17263" height="18675"/>
         <path fill="rgb(255,255,255)" stroke="none" d="M 6568,228 C 8986,228 11511,529 13930,529 15639,2238 17103,4217 18813,5926 18813,8732 18765,10656 18765,13463 17056,15172 15530,17191 13821,18900 11403,18900 9099,18762 6680,18762 4971,17053 3284,15100 1575,13391 1575,10585 1553,8198 1553,5391 3262,3682 4859,1937 6568,228 Z"/>
         <path fill="none" stroke="rgb(0,0,0)" d="M 6568,228 C 8986,228 11511,529 13930,529 15639,2238 17103,4217 18813,5926 18813,8732 18765,10656 18765,13463 17056,15172 15530,17191 13821,18900 11403,18900 9099,18762 6680,18762 4971,17053 3284,15100 1575,13391 1575,10585 1553,8198 1553,5391 3262,3682 4859,1937 6568,228 Z"/>
        </g>
       </g>
       <g class="com.sun.star.drawing.ClosedBezierShape">
        <g id="id6">
         <rect class="BoundingBox" stroke="none" fill="none" x="2401" y="978" width="15715" height="17196"/>
         <path fill="rgb(255,0,0)" stroke="none" d="M 6976,979 C 9394,979 11188,1222 13606,1222 15315,2931 16405,4575 18114,6285 18114,9091 18070,10504 18070,13310 16361,15019 15337,16463 13628,18172 11210,18172 9769,18062 7351,18062 5642,16353 4111,14512 2402,12803 2402,9997 2422,8359 2422,5553 4131,3844 5267,2688 6976,979 Z"/>
         <path fill="none" stroke="rgb(0,0,0)" d="M 6976,979 C 9394,979 11188,1222 13606,1222 15315,2931 16405,4575 18114,6285 18114,9091 18070,10504 18070,13310 16361,15019 15337,16463 13628,18172 11210,18172 9769,18062 7351,18062 5642,16353 4111,14512 2402,12803 2402,9997 2422,8359 2422,5553 4131,3844 5267,2688 6976,979 Z"/>
        </g>
       </g>
       <g class="com.sun.star.drawing.PolyPolygonShape">
        <g id="id7">
         <rect class="BoundingBox" stroke="none" fill="none" x="8215" y="3959" width="7102" height="3050"/>
         <path fill="rgb(255,255,255)" stroke="none" d="M 8216,6819 L 8253,5458 11333,5540 10545,4761 11337,3960 12647,5255 12339,5567 15315,5647 15279,7007 8216,6819 Z"/>
         <path fill="none" stroke="rgb(0,0,0)" d="M 8216,6819 L 8253,5458 11333,5540 10545,4761 11337,3960 12647,5255 12339,5567 15315,5647 15279,7007 8216,6819 Z"/>
        </g>
       </g>
       <g class="com.sun.star.drawing.CustomShape">
        <g id="id8">
         <rect class="BoundingBox" stroke="none" fill="none" x="8876" y="7027" width="5494" height="2520"/>
         <path fill="rgb(255,255,255)" stroke="none" d="M 11591,9473 L 8877,9401 8940,7028 14368,7172 14305,9545 11591,9473 Z"/>
         <path fill="none" stroke="rgb(0,0,0)" d="M 11591,9473 L 8877,9401 8940,7028 14368,7172 14305,9545 11591,9473 Z"/>
        </g>
       </g>
       <g class="com.sun.star.drawing.PolyPolygonShape">
        <g id="id9">
         <rect class="BoundingBox" stroke="none" fill="none" x="7898" y="9593" width="7853" height="2881"/>
         <path fill="rgb(255,255,255)" stroke="none" d="M 7974,9594 L 14485,9768 14485,9767 15747,9800 15747,9802 15749,9802 15716,11050 15714,11050 15676,12472 14413,12437 14451,11016 9200,10876 9161,12316 7899,12281 7970,9611 7973,9611 7974,9594 Z"/>
         <path fill="none" stroke="rgb(0,0,0)" d="M 7974,9594 L 14485,9768 14485,9767 15747,9800 15747,9802 15749,9802 15716,11050 15714,11050 15676,12472 14413,12437 14451,11016 9200,10876 9161,12316 7899,12281 7970,9611 7973,9611 7974,9594 Z"/>
        </g>
       </g>
       <g class="com.sun.star.drawing.ClosedBezierShape">
        <g id="id10">
         <rect class="BoundingBox" stroke="none" fill="none" x="9509" y="11315" width="4684" height="4241"/>
         <path fill="rgb(255,255,255)" stroke="none" d="M 9510,12564 L 9543,11316 14191,11441 14158,12687 12621,12646 C 12734,15335 12604,15305 10679,15554 10411,14800 10462,14690 10304,14163 10874,14011 11537,14622 11344,12612 L 9510,12564 Z"/>
         <path fill="none" stroke="rgb(0,0,0)" d="M 9510,12564 L 9543,11316 14191,11441 14158,12687 12621,12646 C 12734,15335 12604,15305 10679,15554 10411,14800 10462,14690 10304,14163 10874,14011 11537,14622 11344,12612 L 9510,12564 Z"/>
        </g>
       </g>
       <g class="com.sun.star.drawing.CustomShape">
        <g id="id11">
         <rect class="BoundingBox" stroke="none" fill="none" x="10274" y="8073" width="2785" height="511"/>
         <path fill="rgb(255,0,0)" stroke="none" d="M 11660,8545 L 10275,8508 10287,8074 13057,8148 13045,8582 11660,8545 Z"/>
         <path fill="none" stroke="rgb(0,0,0)" d="M 11660,8545 L 10275,8508 10287,8074 13057,8148 13045,8582 11660,8545 Z"/>
        </g>
       </g>
       <g class="com.sun.star.drawing.ClosedBezierShape">
        <g id="id12">
         <rect class="BoundingBox" stroke="none" fill="none" x="5088" y="3623" width="3470" height="11802"/>
         <path fill="rgb(255,255,255)" stroke="none" d="M 6597,15423 L 6691,8564 C 6299,9316 5899,9954 5524,10331 5256,9578 5155,8993 5089,8464 6480,6762 6768,5149 7408,3624 8159,3976 8053,4026 8556,4151 8260,4971 7859,6019 7415,7034 L 7807,7034 7693,15423 6597,15423 Z"/>
         <path fill="none" stroke="rgb(0,0,0)" d="M 6597,15423 L 6691,8564 C 6299,9316 5899,9954 5524,10331 5256,9578 5155,8993 5089,8464 6480,6762 6768,5149 7408,3624 8159,3976 8053,4026 8556,4151 8260,4971 7859,6019 7415,7034 L 7807,7034 7693,15423 6597,15423 Z"/>
        </g>
       </g>
      </g>
     </g>
    </g>
   </g>
  </g>
 </g>
</svg>